<?xml version="1.0" encoding="UTF-8" standalone="no"?>
<svg
   xmlns:dc="http://purl.org/dc/elements/1.1/"
   xmlns:cc="http://creativecommons.org/ns#"
   xmlns:rdf="http://www.w3.org/1999/02/22-rdf-syntax-ns#"
   xmlns:svg="http://www.w3.org/2000/svg"
   xmlns="http://www.w3.org/2000/svg"
   width="192"
   height="192"
   viewBox="0 0 50.799999 50.800001"
   version="1.1"
   id="svg8">
  <defs
     id="defs2" />
  <metadata
     id="metadata5">
    <rdf:RDF>
      <cc:Work
         rdf:about="">
        <dc:format>image/svg+xml</dc:format>
        <dc:type
           rdf:resource="http://purl.org/dc/dcmitype/StillImage" />
        <dc:title></dc:title>
      </cc:Work>
    </rdf:RDF>
  </metadata>
  <g
     id="layer1"
     transform="translate(0,-246.19998)">
    <rect
       ry="2.6458287"
       rx="2.6458287"
       style="opacity:1;vector-effect:none;fill:#00bc8c;fill-opacity:1;stroke:none;stroke-width:0.60367566;stroke-linecap:round;stroke-linejoin:miter;stroke-miterlimit:4;stroke-dasharray:none;stroke-dashoffset:0;stroke-opacity:1"
       id="rect4736"
       width="50.799999"
       height="50.799999"
       x="3.8146973e-07"
       y="246.19998" />
    <path
       style="fill:#ffffff;stroke-width:0.08999346"
       d="m 45.879362,269.04147 h -1.939363 c -4.56086,0 -6.8458,-5.5139 -3.62043,-8.73927 l 1.3706,-1.3724 a 2.5594142,2.5594142 0 0 0 -3.61774,-3.61684 l -1.3715,1.3697 c -3.22537,3.22447 -8.73927,0.94043 -8.73927,-3.62044 v -1.93935 a 2.5603142,2.5603142 0 0 0 -5.12062,0 v 1.94026 c 0,4.56086 -5.5139,6.8449 -8.73927,3.62043 l -1.3715,-1.3706 a 2.5594142,2.5594142 0 0 0 -3.6177405,3.61684 l 1.3724005,1.3724 c 3.22537,3.22537 0.94044,8.73927 -3.6204305,8.73927 h -1.94116 a 2.5603141,2.5603141 0 1 0 0,5.11972 h 1.93936 c 4.5608605,0 6.8458005,5.5148 3.6204305,8.74017 l -1.3706005,1.3715 a 2.5603141,2.5603141 0 0 0 3.6177405,3.61774 l 1.3715,-1.3724 c 3.22537,-3.22537 8.73927,-0.94044 8.73927,3.62043 v 1.93846 a 2.5603142,2.5603142 0 0 0 5.12062,0 v -1.93666 c 0,-4.56086 5.5139,-6.8458 8.73927,-3.62043 l 1.3715,1.3706 a 2.5603141,2.5603141 0 0 0 3.61774,-3.61774 l -1.3724,-1.3715 c -3.22537,-3.22537 -0.94044,-8.74017 3.62044,-8.74017 h 1.938453 a 2.5603141,2.5603141 0 1 0 0,-5.11972 z m -23.357803,4.00021 a 4.3196864,4.3196864 0 1 1 4.31969,-4.31969 4.3196864,4.3196864 0 0 1 -4.31969,4.31969 z m 7.19948,5.03963 a 2.1598432,2.1598432 0 1 1 2.15984,-2.15985 2.1598432,2.1598432 0 0 1 -2.15984,2.15985 z"
       id="path3761" />
  </g>
</svg>
